advent_pro_fmm_reg.ufo
<glyph name="plus" format="1">
  <advance width="378"/>
  <unicode hex="002B"/>
  <outline>
    <contour>
      <point x="216" y="528" type="line"/>
      <point x="161" y="528" type="line"/>
      <point x="161" y="397" type="line"/>
      <point x="28" y="397" type="line"/>
      <point x="28" y="342" type="line"/>
      <point x="161" y="342" type="line"/>
      <point x="161" y="209" type="line"/>
      <point x="216" y="209" type="line"/>
      <point x="216" y="342" type="line"/>
      <point x="347" y="342" type="line"/>
      <point x="347" y="397" type="line"/>
      <point x="216" y="397" type="line"/>
    </contour>
  </outline>
</glyph>
<glyph name="comma" format="1">
  <advance width="266"/>
  <unicode hex="002C"/>
  <outline>
    <contour>
      <point x="98" y="-85" type="curve"/>
      <point x="115" y="-97" type="line"/>
      <point x="135" y="-79"/>
      <point x="167" y="-40"/>
      <point x="168" y="23" type="curve"/>
      <point x="167" y="43"/>
      <point x="153" y="56"/>
      <point x="134" y="56" type="curve" smooth="yes"/>
      <point x="115" y="56"/>
      <point x="101" y="42"/>
      <point x="101" y="23" type="curve" smooth="yes"/>
      <point x="101" y="7"/>
      <point x="113" y="-7"/>
      <point x="129" y="-10" type="curve"/>
      <point x="126" y="-31"/>
      <point x="119" y="-58"/>
    </contour>
  </outline>
</glyph>
<glyph name="hyphen" format="1">
  <advance width="391"/>
  <unicode hex="002D"/>
  <outline>
    <contour>
      <point x="34" y="355" type="line"/>
      <point x="353" y="355" type="line"/>
      <point x="353" y="413" type="line"/>
      <point x="34" y="413" type="line"/>
    </contour>
  </outline>
</glyph>
<glyph name="eight" format="1">
  <advance width="481"/>
  <unicode hex="0038"/>
  <outline>
    <contour>
      <point x="240" y="707" type="curve" smooth="yes"/>
      <point x="191" y="707"/>
      <point x="150" y="690"/>
      <point x="116" y="656" type="curve" smooth="yes"/>
      <point x="83" y="621"/>
      <point x="66" y="581"/>
      <point x="66" y="531" type="curve" smooth="yes"/>
      <point x="66" y="490"/>
      <point x="78" y="453"/>
      <point x="101" y="425" type="curve"/>
      <point x="112" y="410"/>
      <point x="125" y="398"/>
      <point x="140" y="388" type="curve"/>
      <point x="115" y="374"/>
      <point x="92" y="355"/>
      <point x="74" y="333" type="curve" smooth="yes"/>
      <point x="45" y="297"/>
      <point x="27" y="251"/>
      <point x="27" y="200" type="curve" smooth="yes"/>
      <point x="27" y="142"/>
      <point x="48" y="90"/>
      <point x="89" y="50" type="curve" smooth="yes"/>
      <point x="129" y="9"/>
      <point x="180" y="-12"/>
      <point x="239" y="-12" type="curve" smooth="yes"/>
      <point x="298" y="-12"/>
      <point x="349" y="9"/>
      <point x="390" y="50" type="curve" smooth="yes"/>
      <point x="431" y="90"/>
      <point x="452" y="142"/>
      <point x="452" y="200" type="curve" smooth="yes"/>
      <point x="452" y="248"/>
      <point x="436" y="290"/>
      <point x="410" y="326" type="curve" smooth="yes"/>
      <point x="389" y="353"/>
      <point x="362" y="374"/>
      <point x="339" y="387" type="curve"/>
      <point x="355" y="397"/>
      <point x="369" y="410"/>
      <point x="380" y="424" type="curve" smooth="yes"/>
      <point x="403" y="452"/>
      <point x="415" y="488"/>
      <point x="415" y="531" type="curve" smooth="yes"/>
      <point x="415" y="581"/>
      <point x="399" y="621"/>
      <point x="365" y="656" type="curve" smooth="yes"/>
      <point x="331" y="690"/>
      <point x="289" y="707"/>
    </contour>
    <contour>
      <point x="239" y="411" type="curve" smooth="yes"/>
      <point x="203" y="411"/>
      <point x="170" y="428"/>
      <point x="148" y="453" type="curve" smooth="yes"/>
      <point x="129" y="474"/>
      <point x="118" y="503"/>
      <point x="118" y="532" type="curve" smooth="yes"/>
      <point x="118" y="599"/>
      <point x="172" y="654"/>
      <point x="239" y="654" type="curve" smooth="yes"/>
      <point x="306" y="654"/>
      <point x="360" y="599"/>
      <point x="360" y="532" type="curve" smooth="yes"/>
      <point x="360" y="503"/>
      <point x="349" y="474"/>
      <point x="331" y="453" type="curve" smooth="yes"/>
      <point x="309" y="428"/>
      <point x="276" y="411"/>
    </contour>
    <contour>
      <point x="239" y="44" type="curve" smooth="yes"/>
      <point x="152" y="44"/>
      <point x="83" y="114"/>
      <point x="83" y="200" type="curve" smooth="yes"/>
      <point x="83" y="238"/>
      <point x="96" y="273"/>
      <point x="118" y="299" type="curve" smooth="yes"/>
      <point x="147" y="334"/>
      <point x="191" y="356"/>
      <point x="239" y="356" type="curve" smooth="yes"/>
      <point x="291" y="356"/>
      <point x="337" y="332"/>
      <point x="366" y="294" type="curve" smooth="yes"/>
      <point x="385" y="267"/>
      <point x="396" y="235"/>
      <point x="396" y="200" type="curve" smooth="yes"/>
      <point x="396" y="114"/>
      <point x="326" y="44"/>
    </contour>
  </outline>
</glyph>
<glyph name="E" format="1">
  <advance width="405"/>
  <unicode hex="0045"/>
  <outline>
    <contour>
      <point x="41" y="0" type="line"/>
      <point x="372" y="0" type="line"/>
      <point x="372" y="50" type="line"/>
      <point x="97" y="50" type="line"/>
      <point x="97" y="356" type="line"/>
      <point x="269" y="356" type="line"/>
      <point x="287" y="411" type="line"/>
      <point x="97" y="411" type="line"/>
      <point x="97" y="646" type="line"/>
      <point x="374" y="646" type="line"/>
      <point x="374" y="698" type="line"/>
      <point x="41" y="698" type="line"/>
    </contour>
  <contour>
      <point x="202" y="0" type="move" name="ogonek"/>
    </contour>
    <contour>
      <point x="202" y="0" type="move" name="bottom"/>
    </contour>
    <contour>
      <point x="202" y="735" type="move" name="top"/>
    </contour>
    <contour>
      <point x="67" y="700" type="move" name="tonos"/>
    </contour>
    <contour>
      <point x="202" y="300" type="move" name="center"/>
    </contour></outline>
</glyph>
<glyph name="L" format="1">
  <advance width="423"/>
  <unicode hex="004C"/>
  <outline>
    <contour>
      <point x="41" y="0" type="line"/>
      <point x="401" y="0" type="line"/>
      <point x="401" y="50" type="line"/>
      <point x="97" y="50" type="line"/>
      <point x="97" y="698" type="line"/>
      <point x="41" y="698" type="line"/>
    </contour>
    <contour>
      <point x="211" y="735" type="move" name="top"/>
    </contour>
    <contour>
      <point x="211" y="0" type="move" name="bottom"/>
    </contour>
  </outline>
</glyph>
<glyph name="Q" format="1">
  <advance width="490"/>
  <unicode hex="0051"/>
  <outline>
    <contour>
      <point x="270" y="50" type="curve" smooth="yes"/>
      <point x="270" y="90"/>
      <point x="270" y="132"/>
      <point x="270" y="173" type="curve"/>
      <point x="214" y="173" type="line"/>
      <point x="214" y="132"/>
      <point x="214" y="91"/>
      <point x="214" y="51" type="curve" smooth="yes"/>
      <point x="214" y="-61"/>
      <point x="272" y="-107"/>
      <point x="389" y="-107" type="curve"/>
      <point x="395" y="-61" type="line"/>
      <point x="314" y="-62"/>
      <point x="270" y="-33"/>
    </contour>
    <component base="O"/>
  </outline>
</glyph>
<glyph name="Z" format="1">
  <advance width="545"/>
  <unicode hex="005A"/>
  <outline>
    <contour>
      <point x="509" y="698" type="line"/>
      <point x="41" y="698" type="line"/>
      <point x="41" y="647" type="line"/>
      <point x="437" y="647" type="line"/>
      <point x="29" y="50" type="line"/>
      <point x="29" y="0" type="line"/>
      <point x="514" y="0" type="line"/>
      <point x="514" y="51" type="line"/>
      <point x="99" y="51" type="line"/>
      <point x="509" y="648" type="line"/>
    </contour>
    <contour>
      <point x="272" y="735" type="move" name="top"/>
    </contour>
  </outline>
</glyph>
<glyph name="backslash" format="1">
  <advance width="413"/>
  <unicode hex="005C"/>
  <outline>
    <contour>
      <point x="335" y="-113" type="line"/>
      <point x="396" y="-113" type="line"/>
      <point x="72" y="815" type="line"/>
      <point x="16" y="815" type="line"/>
    </contour>
  </outline>
</glyph>
<glyph name="h" format="1">
  <advance width="443"/>
  <unicode hex="0068"/>
  <outline>
    <contour>
      <point x="97" y="465" type="curve"/>
      <point x="97" y="698" type="line"/>
      <point x="41" y="698" type="line"/>
      <point x="41" y="0" type="line"/>
      <point x="97" y="0" type="line"/>
      <point x="97" y="424" type="line"/>
      <point x="138" y="447"/>
      <point x="180" y="458"/>
      <point x="225" y="458" type="curve" smooth="yes"/>
      <point x="288" y="458"/>
      <point x="354" y="432"/>
      <point x="354" y="342" type="curve" smooth="yes"/>
      <point x="354" y="0" type="line"/>
      <point x="410" y="0" type="line"/>
      <point x="410" y="345" type="line" smooth="yes"/>
      <point x="410" y="450"/>
      <point x="346" y="508"/>
      <point x="236" y="508" type="curve" smooth="yes"/>
      <point x="186" y="508"/>
      <point x="136" y="492"/>
    </contour>
  <contour>
      <point x="220" y="0" type="move" name="ogonek"/>
    </contour>
    <contour>
      <point x="221" y="0" type="move" name="bottom"/>
    </contour>
    <contour>
      <point x="221" y="545" type="move" name="top"/>
    </contour>
    <contour>
      <point x="221" y="545" type="move" name="tonos"/>
    </contour>
    <contour>
      <point x="221" y="300" type="move" name="center"/>
    </contour></outline>
</glyph>
<glyph name="v" format="1">
  <advance width="427"/>
  <unicode hex="0076"/>
  <outline>
    <contour>
      <point x="19" y="499" type="line"/>
      <point x="171" y="0" type="line"/>
      <point x="248" y="0" type="line"/>
      <point x="403" y="499" type="line"/>
      <point x="344" y="499" type="line"/>
      <point x="211" y="58" type="line"/>
      <point x="77" y="499" type="line"/>
    </contour>
  </outline>
</glyph>
<glyph name="z" format="1">
  <advance width="427"/>
  <unicode hex="007A"/>
  <outline>
    <contour>
      <point x="377" y="499" type="line"/>
      <point x="40" y="499" type="line"/>
      <point x="40" y="449" type="line"/>
      <point x="305" y="449" type="line"/>
      <point x="31" y="50" type="line"/>
      <point x="31" y="0" type="line"/>
      <point x="398" y="0" type="line"/>
      <point x="398" y="51" type="line"/>
      <point x="100" y="51" type="line"/>
      <point x="377" y="450" type="line"/>
    </contour>
    <contour>
      <point x="213" y="545" type="move" name="top"/>
    </contour>
  </outline>
</glyph>
<glyph name="sfthyphen" format="1">
  <advance width="483"/>
  <unicode hex="00AD"/>
  <outline>
    <contour>
      <point x="361" y="413" type="line"/>
      <point x="42" y="413" type="line"/>
      <point x="42" y="355" type="line"/>
      <point x="361" y="355" type="line"/>
    </contour>
  </outline>
</glyph>
<glyph name="AE" format="2">
  <advance width="750"/>
  <unicode hex="00C6"/>
  <outline>
    <contour>
      <point x="383" y="0" type="line"/>
      <point x="716" y="0" type="line"/>
      <point x="716" y="50" type="line"/>
      <point x="440" y="50" type="line"/>
      <point x="440" y="355" type="line"/>
      <point x="612" y="355" type="line"/>
      <point x="631" y="413" type="line"/>
      <point x="440" y="413" type="line"/>
      <point x="440" y="645" type="line"/>
      <point x="719" y="645" type="line"/>
      <point x="719" y="698" type="line"/>
      <point x="291" y="698" type="line"/>
      <point x="20" y="0" type="line"/>
      <point x="79" y="0" type="line"/>
      <point x="173" y="243" type="line"/>
      <point x="383" y="243" type="line"/>
    </contour>
    <contour>
      <point x="194" y="299" type="line"/>
      <point x="329" y="645" type="line"/>
      <point x="383" y="645" type="line"/>
      <point x="383" y="299" type="line"/>
    </contour>
  </outline>
</glyph>
<glyph name="Oslash" format="2">
  <advance width="498"/>
  <unicode hex="00D8"/>
  <outline>
    <component base="O"/><contour>
      <point x="86" y="-113" type="line"/>
      <point x="147" y="-113" type="line"/>
      <point x="466" y="815" type="line"/>
      <point x="410" y="815" type="line"/>
    </contour>
  







</outline>
</glyph>
<glyph name="hbar" format="1">
  <advance width="471"/>
  <unicode hex="0127"/>
  <outline>
    <contour>
      <point x="261" y="562" type="line"/>
      <point x="261" y="615" type="line"/>
      <point x="26" y="615" type="line"/>
      <point x="26" y="562" type="line"/>
    </contour>
    <component base="h" xOffset="30"/>
  </outline>
</glyph>
<glyph name="dotlessi" format="1">
  <advance width="134"/>
  <unicode hex="0131"/>
  <outline>
    <contour>
      <point x="38" y="0" type="line"/>
      <point x="94" y="0" type="line"/>
      <point x="94" y="499" type="line"/>
      <point x="38" y="499" type="line"/>
    </contour>
    <contour>
      <point x="66" y="0" type="move" name="ogonek"/>
    </contour>
    <contour>
      <point x="22" y="700" type="move" name="tonos"/>
    </contour>
    <contour>
      <point x="67" y="735" type="move" name="top"/>
    </contour>
  </outline>
</glyph>
<glyph name="IJ" format="2">
  <advance width="549"/>
  <unicode hex="0132"/>
  <outline>
    <contour>
      <point x="505" y="698" type="line"/>
      <point x="382" y="698" type="line"/>
      <point x="382" y="649" type="line"/>
      <point x="450" y="647" type="line"/>
      <point x="450" y="186" type="line" smooth="yes"/>
      <point x="450" y="140"/>
      <point x="435" y="106"/>
      <point x="411" y="81" type="curve" smooth="yes"/>
      <point x="384" y="54"/>
      <point x="344" y="42"/>
      <point x="296" y="42" type="curve" smooth="yes"/>
      <point x="254" y="42"/>
      <point x="216" y="53"/>
      <point x="190" y="74" type="curve" smooth="yes"/>
      <point x="159" y="98"/>
      <point x="142" y="135"/>
      <point x="142" y="186" type="curve" smooth="yes"/>
      <point x="142" y="222" type="line"/>
      <point x="87" y="222" type="line"/>
      <point x="87" y="185" type="line" smooth="yes"/>
      <point x="87" y="118"/>
      <point x="108" y="68"/>
      <point x="148" y="36" type="curve" smooth="yes"/>
      <point x="190" y="4"/>
      <point x="240" y="-11"/>
      <point x="297" y="-11" type="curve" smooth="yes"/>
      <point x="353" y="-11"/>
      <point x="402" y="4"/>
      <point x="443" y="36" type="curve" smooth="yes"/>
      <point x="484" y="68"/>
      <point x="505" y="118"/>
      <point x="505" y="185" type="curve" smooth="yes"/>
    </contour>
    <contour>
      <point x="142" y="698" type="line"/>
      <point x="19" y="698" type="line"/>
      <point x="19" y="649" type="line"/>
      <point x="87" y="647" type="line"/>
      <point x="87" y="274" type="line"/>
      <point x="142" y="274" type="line"/>
    </contour>
  </outline>
</glyph>
<glyph name="Tbar" format="1">
  <advance width="463"/>
  <unicode hex="0166"/>
  <outline>
    <contour>
      <point x="29" y="378" type="line"/>
      <point x="29" y="322" type="line"/>
      <point x="428" y="322" type="line"/>
      <point x="428" y="378" type="line"/>
    </contour>
    <component base="T" xOffset="22"/>
  </outline>
</glyph>
<glyph name="tildecomb" format="1">
  <advance width="266"/>
  <unicode hex="0303"/>
  <outline>
    <contour>
      <point x="205" y="717" type="line"/>
      <point x="205" y="699" type="line" smooth="yes"/>
      <point x="205" y="680"/>
      <point x="200" y="659"/>
      <point x="176" y="670" type="curve" smooth="yes"/>
      <point x="167" y="674"/>
      <point x="162" y="678"/>
      <point x="151" y="685" type="curve" smooth="yes"/>
      <point x="137" y="694"/>
      <point x="123" y="705"/>
      <point x="108" y="711" type="curve" smooth="yes"/>
      <point x="85" y="721"/>
      <point x="56" y="721"/>
      <point x="36" y="705" type="curve" smooth="yes"/>
      <point x="16" y="688"/>
      <point x="11" y="662"/>
      <point x="11" y="638" type="curve"/>
      <point x="11" y="620" type="line"/>
      <point x="61" y="620" type="line"/>
      <point x="61" y="638" type="line" smooth="yes"/>
      <point x="61" y="645"/>
      <point x="60" y="660"/>
      <point x="67" y="666" type="curve" smooth="yes"/>
      <point x="76" y="673"/>
      <point x="89" y="666"/>
      <point x="99" y="660" type="curve" smooth="yes"/>
      <point x="110" y="653"/>
      <point x="121" y="645"/>
      <point x="133" y="638" type="curve" smooth="yes"/>
      <point x="150" y="627"/>
      <point x="168" y="617"/>
      <point x="189" y="617" type="curve"/>
      <point x="235" y="617"/>
      <point x="255" y="657"/>
      <point x="255" y="699" type="curve"/>
      <point x="255" y="717" type="line"/>
    </contour>
    <contour>
      <point x="133" y="750" type="move" name="top"/>
    </contour>
    <contour>
      <point x="133" y="600" type="move" name="_top"/>
    </contour>
</outline>
</glyph>
<glyph name="macroncomb" format="1">
  <advance width="266"/>
  <unicode hex="0304"/>
  <outline>
    <contour>
      <point x="243" y="675" type="line"/>
      <point x="23" y="675" type="line"/>
      <point x="23" y="617" type="line"/>
      <point x="243" y="617" type="line"/>
    </contour>
    <contour>
      <point x="133" y="750" type="move" name="top"/>
    </contour>
    <contour>
      <point x="133" y="600" type="move" name="_top"/>
    </contour>
</outline>
</glyph>
<glyph name="dieresiscomb" format="1">
  <advance width="266"/>
  <unicode hex="0308"/>
  <outline>
    <contour>
      <point x="54" y="740" type="curve" smooth="yes"/>
      <point x="36" y="740"/>
      <point x="21" y="725"/>
      <point x="21" y="706" type="curve" smooth="yes"/>
      <point x="21" y="687"/>
      <point x="36" y="673"/>
      <point x="54" y="673" type="curve" smooth="yes"/>
      <point x="72" y="673"/>
      <point x="88" y="687"/>
      <point x="88" y="706" type="curve" smooth="yes"/>
      <point x="88" y="725"/>
      <point x="72" y="740"/>
    </contour>
    <contour>
      <point x="212" y="740" type="curve" smooth="yes"/>
      <point x="193" y="740"/>
      <point x="179" y="725"/>
      <point x="179" y="706" type="curve" smooth="yes"/>
      <point x="179" y="687"/>
      <point x="193" y="673"/>
      <point x="212" y="673" type="curve" smooth="yes"/>
      <point x="231" y="673"/>
      <point x="245" y="687"/>
      <point x="245" y="706" type="curve" smooth="yes"/>
      <point x="245" y="725"/>
      <point x="231" y="740"/>
    </contour>
    <contour>
      <point x="133" y="750" type="move" name="top"/>
    </contour>
    <contour>
      <point x="133" y="600" type="move" name="_top"/>
    </contour>
</outline>
</glyph>
<glyph name="Gamma" format="1">
  <advance width="382"/>
  <unicode hex="0393"/>
  <outline>
    <contour>
      <point x="41" y="0" type="line"/>
      <point x="97" y="0" type="line"/>
      <point x="97" y="645" type="line"/>
      <point x="374" y="645" type="line"/>
      <point x="374" y="698" type="line"/>
      <point x="41" y="698" type="line"/>
    </contour>
  </outline>
</glyph>
<glyph name="Xi" format="2">
  <advance width="562"/>
  <unicode hex="039E"/>
  <outline>
    <contour>
      <point x="23" y="593" type="curve"/>
      <point x="66" y="577" type="line"/>
      <point x="83" y="625"/>
      <point x="116" y="648"/>
      <point x="168" y="648" type="curve" smooth="yes"/>
      <point x="471" y="648" type="line"/>
      <point x="492" y="698" type="line"/>
      <point x="168" y="698" type="line" smooth="yes"/>
      <point x="89" y="698"/>
      <point x="44" y="668"/>
    </contour>
    <contour>
      <point x="415" y="306" type="line"/>
      <point x="415" y="362" type="line"/>
      <point x="149" y="362" type="line"/>
      <point x="149" y="306" type="line"/>
    </contour>
    <contour>
      <point x="386" y="53" type="curve" smooth="yes"/>
      <point x="84" y="53" type="line"/>
      <point x="63" y="0" type="line"/>
      <point x="386" y="0" type="line" smooth="yes"/>
      <point x="466" y="0"/>
      <point x="511" y="31"/>
      <point x="532" y="106" type="curve"/>
      <point x="489" y="122" type="line"/>
      <point x="472" y="76"/>
      <point x="438" y="53"/>
    </contour>
  </outline>
</glyph>
<glyph name="Pi" format="1">
  <advance width="513"/>
  <unicode hex="03A0"/>
  <outline>
    <contour>
      <point x="413" y="0" type="line"/>
      <point x="470" y="0" type="line"/>
      <point x="470" y="698" type="line"/>
      <point x="41" y="698" type="line"/>
      <point x="41" y="0" type="line"/>
      <point x="97" y="0" type="line"/>
      <point x="97" y="641" type="line"/>
      <point x="413" y="641" type="line"/>
    </contour>
  </outline>
</glyph>
<glyph name="Phi" format="2">
  <advance width="593"/>
  <unicode hex="03A6"/>
  <outline>
    <contour>
      <point x="180" y="659" type="curve"/>
      <point x="150" y="704" type="line"/>
      <point x="73" y="679"/>
      <point x="33" y="616"/>
      <point x="33" y="516" type="curve" smooth="yes"/>
      <point x="33" y="224" type="line" smooth="yes"/>
      <point x="33" y="103"/>
      <point x="95" y="30"/>
      <point x="223" y="30" type="curve" smooth="yes"/>
      <point x="266" y="30" type="line"/>
      <point x="266" y="-28" type="line"/>
      <point x="323" y="-35" type="line"/>
      <point x="323" y="30" type="line"/>
      <point x="372" y="30" type="line" smooth="yes"/>
      <point x="500" y="30"/>
      <point x="558" y="103"/>
      <point x="558" y="224" type="curve" smooth="yes"/>
      <point x="558" y="509" type="line" smooth="yes"/>
      <point x="558" y="572"/>
      <point x="539" y="623"/>
      <point x="505" y="658" type="curve" smooth="yes"/>
      <point x="473" y="690"/>
      <point x="429" y="708"/>
      <point x="373" y="708" type="curve" smooth="yes"/>
      <point x="311" y="708"/>
      <point x="270" y="670"/>
      <point x="266" y="603" type="curve"/>
      <point x="266" y="79" type="line"/>
      <point x="223" y="79" type="line" smooth="yes"/>
      <point x="142" y="79"/>
      <point x="89" y="127"/>
      <point x="89" y="215" type="curve" smooth="yes"/>
      <point x="89" y="516" type="line" smooth="yes"/>
      <point x="89" y="596"/>
      <point x="120" y="645"/>
    </contour>
    <contour>
      <point x="372" y="79" type="curve" smooth="yes"/>
      <point x="323" y="79" type="line"/>
      <point x="323" y="594" type="line" smooth="yes"/>
      <point x="323" y="635"/>
      <point x="342" y="656"/>
      <point x="381" y="656" type="curve" smooth="yes"/>
      <point x="412" y="656"/>
      <point x="442" y="645"/>
      <point x="466" y="621" type="curve"/>
      <point x="492" y="598"/>
      <point x="505" y="564"/>
      <point x="505" y="519" type="curve" smooth="yes"/>
      <point x="505" y="215" type="line" smooth="yes"/>
      <point x="505" y="127"/>
      <point x="453" y="79"/>
    </contour>
  </outline>
</glyph>
<glyph name="gamma" format="1">
  <advance width="503"/>
  <unicode hex="03B3"/>
  <outline>
    <contour>
      <point x="482" y="477" type="curve"/>
      <point x="470" y="487"/>
      <point x="457" y="498"/>
      <point x="445" y="508" type="curve"/>
      <point x="387" y="496"/>
      <point x="364" y="458"/>
      <point x="344" y="386" type="curve" smooth="yes"/>
      <point x="308" y="272"/>
      <point x="274" y="157"/>
      <point x="239" y="43" type="curve"/>
      <point x="216" y="55"/>
      <point x="200" y="75"/>
      <point x="183" y="139" type="curve" smooth="yes"/>
      <point x="148" y="258"/>
      <point x="113" y="378"/>
      <point x="77" y="498" type="curve"/>
      <point x="20" y="498" type="line"/>
      <point x="56" y="375"/>
      <point x="92" y="251"/>
      <point x="128" y="128" type="curve" smooth="yes"/>
      <point x="147" y="70"/>
      <point x="166" y="15"/>
      <point x="223" y="-6" type="curve"/>
      <point x="201" y="-79" type="line" smooth="yes"/>
      <point x="187" y="-122"/>
      <point x="159" y="-154"/>
      <point x="105" y="-155" type="curve"/>
      <point x="115" y="-198" type="line"/>
      <point x="234" y="-195"/>
      <point x="249" y="-101"/>
      <point x="264" y="-58" type="curve" smooth="yes"/>
      <point x="394" y="374" type="line" smooth="yes"/>
      <point x="401" y="397"/>
      <point x="425" y="459"/>
    </contour>
  </outline>
</glyph>
<glyph name="epsilon" format="1">
  <advance width="395"/>
  <unicode hex="03B5"/>
  <outline>
    <contour>
      <point x="301" y="443" type="curve"/>
      <point x="301" y="495" type="line"/>
      <point x="263" y="506"/>
      <point x="230" y="509"/>
      <point x="201" y="509" type="curve" smooth="yes"/>
      <point x="95" y="509"/>
      <point x="46" y="441"/>
      <point x="47" y="378" type="curve" smooth="yes"/>
      <point x="48" y="335"/>
      <point x="71" y="296"/>
      <point x="104" y="278" type="curve"/>
      <point x="52" y="256"/>
      <point x="20" y="202"/>
      <point x="20" y="148" type="curve" smooth="yes"/>
      <point x="20" y="65"/>
      <point x="76" y="-11"/>
      <point x="202" y="-11" type="curve" smooth="yes"/>
      <point x="260" y="-11"/>
      <point x="324" y="2"/>
      <point x="371" y="23" type="curve"/>
      <point x="355" y="74" type="line"/>
      <point x="307" y="55"/>
      <point x="257" y="43"/>
      <point x="212" y="42" type="curve" smooth="yes"/>
      <point x="129" y="41"/>
      <point x="76" y="86"/>
      <point x="76" y="145" type="curve" smooth="yes"/>
      <point x="76" y="220"/>
      <point x="144" y="246"/>
      <point x="183" y="246" type="curve"/>
      <point x="281" y="246" type="line"/>
      <point x="301" y="300" type="line"/>
      <point x="182" y="300" type="line" smooth="yes"/>
      <point x="136" y="300"/>
      <point x="105" y="341"/>
      <point x="105" y="381" type="curve" smooth="yes"/>
      <point x="105" y="415"/>
      <point x="126" y="448"/>
      <point x="179" y="455" type="curve" smooth="yes"/>
      <point x="211" y="460"/>
      <point x="239" y="463"/>
    </contour>
    <contour>
      <point x="197" y="545" type="move" name="tonos"/>
    </contour>
  </outline>
</glyph>
<glyph name="eta" format="1">
  <advance width="443"/>
  <unicode hex="03B7"/>
  <outline>
    <contour>
      <point x="351" y="342" type="curve" smooth="yes"/>
      <point x="351" y="-186" type="line"/>
      <point x="406" y="-209" type="line"/>
      <point x="406" y="345" type="line" smooth="yes"/>
      <point x="406" y="450"/>
      <point x="342" y="508"/>
      <point x="232" y="508" type="curve" smooth="yes"/>
      <point x="183" y="508"/>
      <point x="132" y="492"/>
      <point x="94" y="465" type="curve"/>
      <point x="94" y="499" type="line"/>
      <point x="38" y="499" type="line"/>
      <point x="38" y="0" type="line"/>
      <point x="94" y="0" type="line"/>
      <point x="94" y="424" type="line"/>
      <point x="135" y="447"/>
      <point x="176" y="458"/>
      <point x="221" y="458" type="curve" smooth="yes"/>
      <point x="285" y="458"/>
      <point x="351" y="432"/>
    </contour>
    <contour>
      <point x="221" y="545" type="move" name="tonos"/>
    </contour>
  </outline>
</glyph>
<glyph name="theta" format="1">
  <advance width="441"/>
  <unicode hex="03B8"/>
  <outline>
    <contour>
      <point x="219" y="707" type="curve" smooth="yes"/>
      <point x="107" y="707"/>
      <point x="50" y="635"/>
      <point x="50" y="557" type="curve" smooth="yes"/>
      <point x="50" y="532"/>
      <point x="53" y="491"/>
      <point x="77" y="451" type="curve"/>
      <point x="48" y="418"/>
      <point x="32" y="370"/>
      <point x="32" y="310" type="curve" smooth="yes"/>
      <point x="32" y="188" type="line" smooth="yes"/>
      <point x="32" y="67"/>
      <point x="93" y="-6"/>
      <point x="219" y="-6" type="curve" smooth="yes"/>
      <point x="341" y="-6"/>
      <point x="404" y="59"/>
      <point x="404" y="188" type="curve" smooth="yes"/>
      <point x="404" y="503" type="line" smooth="yes"/>
      <point x="404" y="629"/>
      <point x="346" y="707"/>
    </contour>
    <contour>
      <point x="348" y="504" type="curve" smooth="yes"/>
      <point x="348" y="393" type="line"/>
      <point x="99" y="393"/>
      <point x="108" y="530"/>
      <point x="108" y="555" type="curve" smooth="yes"/>
      <point x="108" y="608"/>
      <point x="145" y="654"/>
      <point x="220" y="654" type="curve" smooth="yes"/>
      <point x="296" y="654"/>
      <point x="348" y="612"/>
    </contour>
    <contour>
      <point x="219" y="42" type="curve" smooth="yes"/>
      <point x="140" y="42"/>
      <point x="88" y="87"/>
      <point x="88" y="175" type="curve" smooth="yes"/>
      <point x="88" y="310" type="line" smooth="yes"/>
      <point x="88" y="351"/>
      <point x="96" y="384"/>
      <point x="113" y="408" type="curve"/>
      <point x="155" y="370"/>
      <point x="228" y="342"/>
      <point x="348" y="348" type="curve"/>
      <point x="348" y="175" type="line" smooth="yes"/>
      <point x="348" y="87"/>
      <point x="305" y="42"/>
    </contour>
  </outline>
</glyph>
<glyph name="nu" format="1">
  <advance width="427"/>
  <unicode hex="03BD"/>
  <outline>
    <contour>
      <point x="19" y="499" type="line"/>
      <point x="171" y="0" type="line"/>
      <point x="248" y="0" type="line"/>
      <point x="403" y="499" type="line"/>
      <point x="344" y="499" type="line"/>
      <point x="211" y="58" type="line"/>
      <point x="77" y="499" type="line"/>
    </contour>
  <contour>
      <point x="213" y="0" type="move" name="ogonek"/>
    </contour>
    <contour>
      <point x="213" y="0" type="move" name="bottom"/>
    </contour>
    <contour>
      <point x="213" y="545" type="move" name="top"/>
    </contour>
    <contour>
      <point x="213" y="545" type="move" name="tonos"/>
    </contour>
    <contour>
      <point x="213" y="300" type="move" name="center"/>
    </contour></outline>
</glyph>
<glyph name="fraction" format="1">
  <advance width="415"/>
  <unicode hex="2044"/>
  <outline>
    <contour>
      <point x="18" y="-113" type="line"/>
      <point x="75" y="-113" type="line"/>
      <point x="399" y="815" type="line"/>
      <point x="337" y="815" type="line"/>
    </contour>
    <contour>
      <point x="207" y="300" type="move" name="center"/>
    </contour>
    <contour>
      <point x="207" y="0" type="move" name="ogonek"/>
    </contour>
    <contour>
      <point x="207" y="545" type="move" name="top"/>
    </contour>
    <contour>
      <point x="207" y="545" type="move" name="tonos"/>
    </contour>
    <contour>
      <point x="207" y="0" type="move" name="bottom"/>
    </contour>
  </outline>
</glyph>
<glyph name="commaturnedbelowcomb" format="1">
  <advance width="266"/>
  <outline>
    <contour>
      <point x="98" y="-195" type="curve"/>
      <point x="115" y="-207" type="line"/>
      <point x="135" y="-189"/>
      <point x="167" y="-150"/>
      <point x="168" y="-87" type="curve"/>
      <point x="167" y="-67"/>
      <point x="153" y="-54"/>
      <point x="134" y="-54" type="curve" smooth="yes"/>
      <point x="115" y="-54"/>
      <point x="101" y="-68"/>
      <point x="101" y="-87" type="curve" smooth="yes"/>
      <point x="101" y="-103"/>
      <point x="113" y="-117"/>
      <point x="129" y="-120" type="curve"/>
      <point x="126" y="-141"/>
      <point x="119" y="-168"/>
    </contour>
    <contour>
      <point x="133" y="-250" type="move" name="bottom"/>
    </contour>
    <contour>
      <point x="133" y="0" type="move" name="_bottom"/>
    </contour>
</outline>
</glyph>
<glyph name="ogonekcomb" format="1">
  <advance width="266"/>
  <outline>
    <contour>
      <point x="161" y="11" type="line"/>
      <point x="117" y="8" type="line"/>
      <point x="117" y="3" type="line"/>
      <point x="53" y="-108" type="line" smooth="yes"/>
      <point x="13" y="-180"/>
      <point x="61" y="-251"/>
      <point x="150" y="-226" type="curve" smooth="yes"/>
      <point x="169" y="-220"/>
      <point x="253" y="-190"/>
      <point x="254" y="-189" type="curve"/>
      <point x="236" y="-150" type="line"/>
      <point x="236" y="-150"/>
      <point x="194" y="-164"/>
      <point x="139" y="-184" type="curve" smooth="yes"/>
      <point x="90" y="-200"/>
      <point x="64" y="-168"/>
      <point x="90" y="-122" type="curve" smooth="yes"/>
      <point x="161" y="2" type="line"/>
    </contour>
    <contour>
      <point x="133" y="-250" type="move" name="ogonek"/>
    </contour>
    <contour>
      <point x="133" y="0" type="move" name="_ogonek"/>
    </contour>
  </outline>
</glyph>
<glyph name="tonoscomb" format="1">
  <advance width="266"/>
  <outline>
    <contour>
      <point x="202" y="682" type="line"/>
      <point x="215" y="696"/>
      <point x="213" y="719"/>
      <point x="195" y="729" type="curve" smooth="yes"/>
      <point x="178" y="739"/>
      <point x="158" y="728"/>
      <point x="152" y="710" type="curve" smooth="yes"/>
      <point x="114" y="603" type="line"/>
      <point x="149" y="603" type="line"/>
    </contour>
    <contour>
      <point x="133" y="750" type="move" name="tonos"/>
    </contour>
    <contour>
      <point x="133" y="600" type="move" name="_tonos"/>
    </contour>
</outline>
</glyph>
